<svg width="99" height="23" viewBox="0 0 99 23" fill="none" xmlns="http://www.w3.org/2000/svg">
<path fill-rule="evenodd" clip-rule="evenodd" d="M66 11.5C66 6.80369 69.7934 3 74.48 3C79.1565 3 83 6.80369 83 11.5C83 16.1963 79.1665 20 74.48 20C69.7934 20 66 16.1963 66 11.5ZM69.5726 11.5C69.5726 14.685 71.5496 16.8758 74.48 16.8758C77.4003 16.8758 79.3873 14.685 79.3873 11.5C79.3873 8.31503 77.4103 6.12411 74.48 6.12411C71.5496 6.12411 69.5726 8.31503 69.5726 11.5Z" fill="#191919"/>
<path d="M45.5352 3H42V18.9528C42 19.524 42.4368 20 42.9831 20H52V16.9005H45.5352V3Z" fill="#191919"/>
<path d="M58.5666 3H55V18.9528C55 19.524 55.4408 20 55.9918 20H66V16.9005H58.5666V3V3Z" fill="#191919"/>
<path fill-rule="evenodd" clip-rule="evenodd" d="M30.5385 3H32.4615C32.8345 3 33.1694 3.2433 33.3225 3.61357L40 20H36.3742L35.3219 17.3765H27.6781L26.6258 20H23L29.6775 3.61357C29.8306 3.2433 30.1655 3 30.5385 3ZM31.4952 7.81332L28.8739 14.3827H34.1261L31.4952 7.81332Z" fill="#191919"/>
<path d="M94.8914 3L90.495 10.7119L86.0986 3H82L88.4508 13.7797C88.6492 14.1183 88.7583 14.4991 88.7583 14.9011V20H92.2417V14.9011C92.2417 14.4991 92.3508 14.1183 92.5494 13.7797L99 3H94.8914V3Z" fill="#191919"/>
<path fill-rule="evenodd" clip-rule="evenodd" d="M1.28649 0.359616C2.08807 -0.119872 3.04799 -0.119872 3.84957 0.359616L8.08508 2.87947C8.09003 2.87947 8.09251 2.88202 8.09498 2.88457C8.09746 2.88712 8.09993 2.88967 8.10489 2.88967L18.7233 9.21482C19.525 9.6841 20 10.5411 20 11.5C20 12.4488 19.525 13.3058 18.7233 13.7853L14.4878 16.3051C14.4829 16.3102 14.4779 16.3128 14.473 16.3154C14.468 16.3179 14.4631 16.3205 14.4582 16.3256L3.84957 22.6404C3.04799 23.1199 2.08807 23.1199 1.28649 22.6404C0.475011 22.1609 0 21.3142 0 20.3552V15.3053V15.2951V15.2849V2.64483C0 1.69606 0.475011 0.839102 1.28649 0.359616ZM3.41415 1.14516C2.87976 0.8289 2.2464 0.8289 1.72192 1.14516C1.18753 1.46142 0.870855 2.02252 0.880749 2.64483V13.4282L0.959918 13.2854L3.2756 2.87947C3.40424 2.32857 3.74072 1.8797 4.21572 1.62465L3.41415 1.14516ZM0.910439 15.1625C0.841165 15.2849 0.890646 15.3971 0.910439 15.438L0.913557 15.4423C0.944846 15.4855 1.01404 15.5811 1.14794 15.591H1.34587H12.1623H13.904C14.0524 15.591 14.1217 15.489 14.1415 15.4482C14.1613 15.4175 14.1811 15.3665 14.1811 15.3053C14.1811 15.2543 14.1712 15.2135 14.1415 15.1625L14.0425 14.9891L8.62937 5.32792L7.75852 3.77724C7.68925 3.64462 7.5705 3.63441 7.52101 3.63441C7.47153 3.63441 7.35278 3.65481 7.2835 3.77724L7.18454 3.95066L2.86985 11.6633L0.910439 15.1625ZM14.8936 14.7136L10.8065 7.4193L16.2988 12.6835C16.5561 12.9283 16.665 13.2956 16.5858 13.6526C16.5066 14.0097 16.2593 14.2851 15.9227 14.3974L14.8936 14.7136ZM16.9024 12.0203C17.2984 12.408 17.5062 12.9385 17.4864 13.4894L18.2879 13.0201C18.8125 12.7039 19.1291 12.1428 19.1291 11.5102C19.1291 10.8777 18.8125 10.3166 18.2879 10.0004L9.24293 4.60359L9.32209 4.75661L16.9024 12.0203ZM6.5314 3.31816L2.44433 10.6227L4.11677 3.08351C4.19593 2.72645 4.44333 2.45099 4.7798 2.34898C5.11626 2.23676 5.47252 2.32857 5.72982 2.57342L6.5314 3.31816ZM9.31221 16.4786H1.13805L0.890646 17.5599C0.811477 17.9171 0.920334 18.2843 1.17763 18.5291C1.44483 18.774 1.80108 18.8658 2.13755 18.7535L9.31221 16.4786ZM0.870854 19.4065C1.32607 19.7023 1.87035 19.7839 2.39485 19.6104L12.2909 16.4786H12.4591L3.40424 21.8651C2.87976 22.1813 2.2464 22.1813 1.71202 21.8651C1.18753 21.5488 0.870854 20.9877 0.870854 20.3552V19.4065Z" fill="#191919"/>
</svg>
